<?xml version="1.0" encoding="UTF-8"?>
<?xml-stylesheet href="/css/style.css" type="text/css"?>
<svg class = "logo" xmlns="http://www.w3.org/2000/svg" viewBox="0 0 274.99 145">
<g id="Layer_2" data-name="Layer 2">
<g id="Layer_9" data-name="Layer 9">
<path d="M107.63,75A13.13,13.13,0,0,1,102,69.75a16.4,16.4,0,0,1-2.06-8.45,18.19,18.19,0,0,1,1.93-8.64,13.45,13.45,0,0,1,5.33-5.52,15.71,15.71,0,0,1,7.76-1.9,15.26,15.26,0,0,1,7.13,1.6,11.75,11.75,0,0,1,4.84,4.53,13.13,13.13,0,0,1,1.75,6.86,10.73,10.73,0,0,1-.31,2.45,9.22,9.22,0,0,1-.79,2.27H107.17q0,4.65,2.61,7a9,9,0,0,0,6.28,2.39,12.63,12.63,0,0,0,3.77-.52,19.36,19.36,0,0,0,3.64-1.69c.16-.08.44-.23.83-.46a2.1,2.1,0,0,1,1-.34,1.76,1.76,0,0,1,1.35.62,2.21,2.21,0,0,1,.55,1.53,2.39,2.39,0,0,1-.55,1.53,6.87,6.87,0,0,1-1.78,1.41,19.09,19.09,0,0,1-17.19.55ZM121.2,58.54a5,5,0,0,0,.31-1.84,7.19,7.19,0,0,0-1.78-5.18,6.36,6.36,0,0,0-4.84-1.87A6.89,6.89,0,0,0,109.56,52a10.39,10.39,0,0,0-2.39,6.5Z"/>
<path d="M140.66,74.53a7.92,7.92,0,0,1-2.61-6.31V50.57h-4.16a1.39,1.39,0,0,1-1.14-.49,2.08,2.08,0,0,1-.39-1.34,2.33,2.33,0,0,1,.88-2,3.88,3.88,0,0,1,2.36-.67h2.58l1.1-6.86h5.94V46.1h9.44a1,1,0,0,1,.7.25.82.82,0,0,1,.28.67,1.71,1.71,0,0,1-.77,1.5,7.49,7.49,0,0,1-2.54.89l-7.11,1.16V68.65a3.67,3.67,0,0,0,.95,2.75,3.57,3.57,0,0,0,2.61.92A5.82,5.82,0,0,0,152.45,71c.12-.09.34-.26.65-.52a1.47,1.47,0,0,1,1-.4,1.75,1.75,0,0,1,1.31.52A1.85,1.85,0,0,1,156,72c0,1-.8,2-2.39,3.06a11.77,11.77,0,0,1-6.38,1.78A9.57,9.57,0,0,1,140.66,74.53Z"/>
<path d="M159.93,74.22c0-1.63,1.08-2.45,3.25-2.45h1V36.6h-2.82q-1.41,0-1.41-1.71a2.09,2.09,0,0,1,.86-1.84,4,4,0,0,1,2.39-.61h7.9V49.71h.24q5-4.47,10.3-4.47a10.52,10.52,0,0,1,7.26,2.54,8.87,8.87,0,0,1,2.85,7v17l2.39,1a7,7,0,0,1,1.71,1,1.5,1.5,0,0,1,.49,1.14c0,.69-.3,1-.92,1H181.68c-.94,0-1.41-.57-1.41-1.72,0-1.63,1.08-2.45,3.25-2.45h1V55.23a5.66,5.66,0,0,0-1.35-4,5.14,5.14,0,0,0-4-1.47,8.51,8.51,0,0,0-4.11,1.13,15.29,15.29,0,0,0-3.8,3V71.77l2.45,1a6.89,6.89,0,0,1,1.72,1A1.5,1.5,0,0,1,176,74.9c0,.69-.31,1-.92,1H161.34C160.4,75.94,159.93,75.37,159.93,74.22Z"/>
<path d="M199.51,74.22c0-1.63,1.08-2.45,3.25-2.45h1V50h-2.82q-1.41,0-1.41-1.71a2.09,2.09,0,0,1,.86-1.84,4,4,0,0,1,2.39-.61h8.15V71.77l2.45,1a7,7,0,0,1,1.71,1,1.5,1.5,0,0,1,.49,1.14c0,.69-.3,1-.92,1H200.92C200,75.94,199.51,75.37,199.51,74.22Zm4.29-34a4.52,4.52,0,0,1-1.35-3.43,4.5,4.5,0,0,1,1.35-3.43,4.68,4.68,0,0,1,3.37-1.29,4.79,4.79,0,0,1,3.4,1.29A4.45,4.45,0,0,1,212,36.79a4.47,4.47,0,0,1-1.38,3.43,4.79,4.79,0,0,1-3.4,1.29A4.68,4.68,0,0,1,203.8,40.22Z"/>
<path d="M226,74.9a13.68,13.68,0,0,1-5.64-5.49,16.92,16.92,0,0,1-2-8.48,16.87,16.87,0,0,1,2.05-8.58A13.43,13.43,0,0,1,225.85,47a16.34,16.34,0,0,1,7.6-1.78,17.78,17.78,0,0,1,6.28,1.11A15.47,15.47,0,0,1,244.48,49v6.37q0,1.17-1.41,1.17c-1.18,0-1.94-.78-2.27-2.33l-.67-2.88a8.52,8.52,0,0,0-2.54-1.17,11.93,11.93,0,0,0-3.22-.43,8.09,8.09,0,0,0-6.4,2.88c-1.66,1.93-2.48,4.72-2.48,8.4s.85,6.55,2.57,8.48a8.53,8.53,0,0,0,6.74,2.92,10.43,10.43,0,0,0,6.74-2.21,3,3,0,0,1,1.65-.73,1.63,1.63,0,0,1,1.26.58,2.14,2.14,0,0,1,.52,1.5c0,1.1-.82,2.14-2.45,3.12a15.71,15.71,0,0,1-8.27,2.15A17.57,17.57,0,0,1,226,74.9Z"/>
<path d="M254.13,75.82a16,16,0,0,1-5-2.33V66.87a1.25,1.25,0,0,1,.33-.86,1.32,1.32,0,0,1,1-.36c1.15,0,1.92.79,2.33,2.39l.61,2.63a8.11,8.11,0,0,0,2.82,1.2,15.94,15.94,0,0,0,3.8.45q5.76,0,5.76-3.24a3,3,0,0,0-.73-2,6.93,6.93,0,0,0-2-1.51c-.85-.45-2.55-1.26-5.08-2.45a23.27,23.27,0,0,1-6.71-4.26,7.17,7.17,0,0,1-2-5.23,7,7,0,0,1,3.25-6.13,14.05,14.05,0,0,1,8.08-2.21,17.84,17.84,0,0,1,6.34,1.14,15.52,15.52,0,0,1,4.75,2.6v6.31a1,1,0,0,1-.33.8,1.51,1.51,0,0,1-1,.3,1.93,1.93,0,0,1-1.47-.58,4,4,0,0,1-.85-1.74l-.68-2.76a8.41,8.41,0,0,0-2.54-1.17,11.88,11.88,0,0,0-3.22-.43,7.57,7.57,0,0,0-3.7.8A2.67,2.67,0,0,0,256.37,53,2.76,2.76,0,0,0,257,54.8a6.1,6.1,0,0,0,1.75,1.41c.77.45,2.06,1.1,3.85,2l2,1a23,23,0,0,1,6.43,4.2,7.34,7.34,0,0,1,1.9,5.3,6.6,6.6,0,0,1-3.52,6.19,17.85,17.85,0,0,1-8.74,2A22.82,22.82,0,0,1,254.13,75.82Z"/>
<path d="M103,23.42c0-.91.6-1.36,1.81-1.36h.54V10h-1.57c-.52,0-.78-.31-.78-1a1.18,1.18,0,0,1,.48-1,2.24,2.24,0,0,1,1.33-.34h4.52v14.4l1.37.54a3.85,3.85,0,0,1,1,.56.83.83,0,0,1,.27.63c0,.39-.17.58-.51.58h-7.63C103.27,24.37,103,24.05,103,23.42Zm2.38-18.89a2.51,2.51,0,0,1-.74-1.91,2.52,2.52,0,0,1,.74-1.91A2.65,2.65,0,0,1,107.27,0a2.69,2.69,0,0,1,1.89.71,2.5,2.5,0,0,1,.76,1.91,2.49,2.49,0,0,1-.76,1.91,2.69,2.69,0,0,1-1.89.71A2.65,2.65,0,0,1,105.39,4.53Z"/>
<path d="M113.77,23.42c0-.91.6-1.36,1.8-1.36h.55V10h-1.57c-.52,0-.78-.31-.78-1a1.19,1.19,0,0,1,.47-1,2.24,2.24,0,0,1,1.33-.34h4.36V9.84h.1a8.67,8.67,0,0,1,5.79-2.52,5.83,5.83,0,0,1,4,1.41,4.89,4.89,0,0,1,1.58,3.86v9.47l1.33.54a4.17,4.17,0,0,1,1,.56.83.83,0,0,1,.27.63c0,.39-.17.58-.51.58h-7.63c-.52,0-.78-.32-.78-.95,0-.91.6-1.36,1.8-1.36h.58V12.93a3.11,3.11,0,0,0-.75-2.22,2.86,2.86,0,0,0-2.21-.81,4.85,4.85,0,0,0-2.28.63,8.27,8.27,0,0,0-2.11,1.65v9.88l1.36.54a3.85,3.85,0,0,1,1,.56.81.81,0,0,1,.28.63c0,.39-.17.58-.51.58h-7.63C114,24.37,113.77,24.05,113.77,23.42Z"/>
<path d="M140.13,23.59a4.39,4.39,0,0,1-1.45-3.51v-9.8h-2.31a.77.77,0,0,1-.63-.27,1.14,1.14,0,0,1-.22-.75A1.28,1.28,0,0,1,136,8.17a2.12,2.12,0,0,1,1.31-.38h1.43L139.36,4h3.31V7.79h5.24a.56.56,0,0,1,.39.14.49.49,0,0,1,.15.38.94.94,0,0,1-.42.83,4.16,4.16,0,0,1-1.42.49l-3.94.65v10a1.8,1.8,0,0,0,2,2,3.22,3.22,0,0,0,2-.75,2.93,2.93,0,0,0,.36-.29.88.88,0,0,1,.56-.22,1,1,0,0,1,.73.29,1,1,0,0,1,.29.77c0,.57-.44,1.13-1.32,1.7a6.51,6.51,0,0,1-3.54,1A5.31,5.31,0,0,1,140.13,23.59Z"/>
<path d="M154.77,23.86a7.31,7.31,0,0,1-3.13-2.93,9.1,9.1,0,0,1-1.14-4.69,10,10,0,0,1,1.07-4.8,7.43,7.43,0,0,1,3-3.07,8.71,8.71,0,0,1,4.31-1,8.55,8.55,0,0,1,4,.88,6.54,6.54,0,0,1,2.69,2.52,7.29,7.29,0,0,1,1,3.81,6.48,6.48,0,0,1-.17,1.37,4.91,4.91,0,0,1-.44,1.25H154.51a4.79,4.79,0,0,0,4.94,5.25,6.94,6.94,0,0,0,2.09-.29,11.41,11.41,0,0,0,2-.94l.46-.25a1.07,1.07,0,0,1,.52-.19,1,1,0,0,1,.75.34,1.2,1.2,0,0,1,.31.85,1.27,1.27,0,0,1-.31.85,3.92,3.92,0,0,1-1,.79,10,10,0,0,1-5.08,1.29A9.89,9.89,0,0,1,154.77,23.86Zm7.54-9.16a2.87,2.87,0,0,0,.17-1,4,4,0,0,0-1-2.87,3.54,3.54,0,0,0-2.69-1,3.79,3.79,0,0,0-3,1.33,5.73,5.73,0,0,0-1.33,3.6Z"/>
<path d="M173.88,32a9.17,9.17,0,0,1-2.55-1,4.11,4.11,0,0,1-1-.78,1.32,1.32,0,0,1-.32-.88,1.15,1.15,0,0,1,.31-.84,1,1,0,0,1,.71-.32.93.93,0,0,1,.41.12c.16.08.35.18.58.32A9.29,9.29,0,0,0,176.84,30a4.74,4.74,0,0,0,3.47-1.17,4.38,4.38,0,0,0,1.19-3.29V22.64h-.13a5.67,5.67,0,0,1-2.06,1.61,6.63,6.63,0,0,1-2.91.6,8.09,8.09,0,0,1-3.9-.94A6.91,6.91,0,0,1,169.68,21a9.87,9.87,0,0,1-1.08-4.84,9.27,9.27,0,0,1,1.23-4.93,7.64,7.64,0,0,1,3.25-3,10.18,10.18,0,0,1,4.48-1,12.88,12.88,0,0,1,4.15.71A11.63,11.63,0,0,1,185.28,10v15a7.09,7.09,0,0,1-2.16,5.53,8.86,8.86,0,0,1-6.14,2A13,13,0,0,1,173.88,32Zm6.32-10.69a3.65,3.65,0,0,0,1.14-2.79V10.76a7,7,0,0,0-1.71-.72,7.15,7.15,0,0,0-2-.27A4.56,4.56,0,0,0,174,11.45a7.06,7.06,0,0,0-1.43,4.72,7.25,7.25,0,0,0,1.27,4.64,4.22,4.22,0,0,0,3.46,1.59A4.07,4.07,0,0,0,180.2,21.34Z"/>
<path d="M188.52,23.42c0-.91.6-1.36,1.8-1.36h.55V10H189.3c-.52,0-.78-.31-.78-1A1.19,1.19,0,0,1,189,8a2.24,2.24,0,0,1,1.33-.34h4.36V11.1h.1a12.45,12.45,0,0,1,2.79-2.69,5.25,5.25,0,0,1,3-1.09,2.09,2.09,0,0,1,1.53.54,1.92,1.92,0,0,1,.54,1.4,2.89,2.89,0,0,1-.18,1,2.19,2.19,0,0,1-.5.8,11.05,11.05,0,0,0-7.11,2.59v8.41l1.36.54a3.85,3.85,0,0,1,.95.56.83.83,0,0,1,.27.63c0,.39-.17.58-.51.58H189.3C188.78,24.37,188.52,24.05,188.52,23.42Z"/>
<path d="M205.28,23.6a4.25,4.25,0,0,1-1.55-3.52,4.18,4.18,0,0,1,1.84-3.78,12.16,12.16,0,0,1,4.77-1.63l4-.61V12.83a2.89,2.89,0,0,0-.88-2.24A3.46,3.46,0,0,0,211,9.77a7.91,7.91,0,0,0-2.1.31,6.49,6.49,0,0,0-1.78.71l-.34,1.39a2.17,2.17,0,0,1-.5,1,1.13,1.13,0,0,1-.83.32.73.73,0,0,1-.56-.19.58.58,0,0,1-.19-.45V9.22a14.59,14.59,0,0,1,3.33-1.37,13.15,13.15,0,0,1,3.65-.53,7.58,7.58,0,0,1,4.8,1.44,5,5,0,0,1,1.83,4.17v9.23l1.09.44a4,4,0,0,1,1,.56.83.83,0,0,1,.27.63c0,.39-.17.58-.51.58h-5.72V22.5h-.14A6.45,6.45,0,0,1,212,24.2a7.14,7.14,0,0,1-3,.65A5.75,5.75,0,0,1,205.28,23.6Zm7-1.85a4.35,4.35,0,0,0,1.51-1.34,3.06,3.06,0,0,0,.58-1.79V16.41l-3.27.51c-2.24.38-3.37,1.38-3.37,3a2.21,2.21,0,0,0,.69,1.72,2.63,2.63,0,0,0,1.87.63A4.12,4.12,0,0,0,212.26,21.75Z"/>
<path d="M225.57,23.59a4.39,4.39,0,0,1-1.45-3.51v-9.8h-2.31a.75.75,0,0,1-.63-.27,1.14,1.14,0,0,1-.22-.75,1.28,1.28,0,0,1,.49-1.09,2.12,2.12,0,0,1,1.31-.38h1.43L224.8,4h3.3V7.79h5.25a.58.58,0,0,1,.39.14.49.49,0,0,1,.15.38.93.93,0,0,1-.43.83,4,4,0,0,1-1.41.49l-4,.65v10a2,2,0,0,0,.53,1.53,2,2,0,0,0,1.45.51,3.24,3.24,0,0,0,2-.75,2.93,2.93,0,0,0,.36-.29.86.86,0,0,1,.56-.22,1,1,0,0,1,.73.29,1.06,1.06,0,0,1,.29.77c0,.57-.44,1.13-1.33,1.7a6.47,6.47,0,0,1-3.54,1A5.3,5.3,0,0,1,225.57,23.59Z"/>
<path d="M240.21,23.86a7.34,7.34,0,0,1-3.14-2.93,9.1,9.1,0,0,1-1.14-4.69,10,10,0,0,1,1.08-4.8,7.43,7.43,0,0,1,3-3.07,8.69,8.69,0,0,1,4.3-1,8.57,8.57,0,0,1,4,.88,6.6,6.6,0,0,1,2.69,2.52,7.39,7.39,0,0,1,1,3.81,6.48,6.48,0,0,1-.17,1.37,5.33,5.33,0,0,1-.44,1.25H240a5,5,0,0,0,1.45,3.92,5,5,0,0,0,3.49,1.33,6.94,6.94,0,0,0,2.09-.29,11.41,11.41,0,0,0,2-.94l.45-.25a1.13,1.13,0,0,1,.53-.19,1,1,0,0,1,.75.34,1.25,1.25,0,0,1,.31.85,1.33,1.33,0,0,1-.31.85,3.82,3.82,0,0,1-1,.79,10.6,10.6,0,0,1-9.54.3Zm7.54-9.16a2.88,2.88,0,0,0,.16-1,4,4,0,0,0-1-2.87,3.55,3.55,0,0,0-2.69-1,3.79,3.79,0,0,0-3,1.33A5.67,5.67,0,0,0,240,14.7Z"/>
<path d="M258.14,23.91A6.91,6.91,0,0,1,255.32,21a9.87,9.87,0,0,1-1.07-4.84,9.64,9.64,0,0,1,1.1-4.71,7.73,7.73,0,0,1,3-3.1,8.48,8.48,0,0,1,4.24-1.07,9.18,9.18,0,0,1,4.46,1.15v-6h-1.61c-.52,0-.78-.32-.78-.95a1.17,1.17,0,0,1,.5-1A2.29,2.29,0,0,1,266.47.2h4.46V22.06l1.25.54a3.77,3.77,0,0,1,1,.56.83.83,0,0,1,.27.63c0,.39-.17.58-.51.58h-5.75V22.53H267A5.54,5.54,0,0,1,265,24.22a6.48,6.48,0,0,1-2.91.63A8.09,8.09,0,0,1,258.14,23.91Zm7.71-2.57A3.64,3.64,0,0,0,267,18.55V11a6.76,6.76,0,0,0-1.74-.88,6,6,0,0,0-2-.34,4.52,4.52,0,0,0-3.61,1.67,7.07,7.07,0,0,0-1.43,4.73,7.25,7.25,0,0,0,1.28,4.64A4.22,4.22,0,0,0,263,22.4,4,4,0,0,0,265.85,21.34Z"/>
<path d="M100.82,143.94V83.49h2.78v57.76h30.88v2.69Z"/>
<path d="M136.52,143.94l23-60.45H163l23,60.45H183L160.74,85.12h1L139.5,143.94Zm10.09-21.56.82-2.7h27.69l.82,2.7Z"/>
<path d="M209,144.35c-1.58,0-3.09,0-4.53-.08s-2.91-.14-4.39-.27-3.07-.27-4.76-.47V84.31q2.32-.45,4.59-.78c1.51-.22,3.12-.37,4.82-.47s3.56-.14,5.58-.14a37.77,37.77,0,0,1,12.44,1.71,13.45,13.45,0,0,1,7,5.19A15.83,15.83,0,0,1,232,98.6a16.91,16.91,0,0,1-1.27,6.6,11.67,11.67,0,0,1-4.16,5.1,17.57,17.57,0,0,1-7.8,2.76l.12-.61c5.25.54,9.05,2.21,11.37,5a15.61,15.61,0,0,1,3.5,10.38,17.64,17.64,0,0,1-1.37,7.15,12.33,12.33,0,0,1-4.33,5.18,21.57,21.57,0,0,1-7.68,3.15A52.7,52.7,0,0,1,209,144.35Zm.08-2.7a44,44,0,0,0,13-1.53q4.78-1.53,6.82-4.59a13.57,13.57,0,0,0,2-7.72q0-6.94-4.39-10.28c-2.93-2.21-7.49-3.33-13.67-3.33H197.42v-2.69h14.34a29.6,29.6,0,0,0,10.09-1.43,10.55,10.55,0,0,0,5.59-4.31,13.56,13.56,0,0,0,1.76-7.17q0-7-4.35-10t-14.6-3q-3.88,0-6.74.23a51.4,51.4,0,0,0-5.43.71V141c1.74.25,3.49.42,5.26.51S207,141.65,209.06,141.65Z"/>
<path d="M255.1,144.68a43.07,43.07,0,0,1-6.74-.57,41.32,41.32,0,0,1-7-1.76v-2.78a46.86,46.86,0,0,0,4.94,1.39,44,44,0,0,0,4.66.78,40.81,40.81,0,0,0,4.33.24q8.34,0,12.56-3.41t4.23-10q0-5.62-3.23-8.57T258.2,115.1l-2.53-.65q-7.56-2-11.28-5.8a14,14,0,0,1-3.71-10.13q0-7.3,4.92-11.54t14.52-4.23a47.57,47.57,0,0,1,6.44.45,32.45,32.45,0,0,1,6.06,1.39v2.78a38.56,38.56,0,0,0-6.33-1.47,44.7,44.7,0,0,0-6.33-.45,24.1,24.1,0,0,0-9.07,1.49,11.23,11.23,0,0,0-5.45,4.37,13,13,0,0,0-1.82,7c0,3.65,1,6.46,3,8.45s5.35,3.61,10.09,4.86l2.53.66a32.38,32.38,0,0,1,8.93,3.53,14,14,0,0,1,5.16,5.23,15.12,15.12,0,0,1,1.68,7.33,16.16,16.16,0,0,1-2.31,8.86,14.29,14.29,0,0,1-6.76,5.52A27.85,27.85,0,0,1,255.1,144.68Z"/>
<path d="M64,65.45V47.93a40.13,40.13,0,0,0-8.47-24.19,14.8,14.8,0,1,1,24-.53,44.47,44.47,0,0,0-8.26,25.25V65.35a27.34,27.34,0,0,0,7.54,18.54,14.8,14.8,0,1,1-22.08.4A28.94,28.94,0,0,0,64,65.45Z"/>
<path d="M43,145a14.81,14.81,0,0,1-12.18-24.43,28.89,28.89,0,0,0,7.29-18.84V84.18A40.13,40.13,0,0,0,29.59,60a14.8,14.8,0,1,1,24-.53,44.47,44.47,0,0,0-8.26,25.25V101.6a27.34,27.34,0,0,0,7.54,18.54A14.8,14.8,0,0,1,43,145"/>
<path d="M11.48,65.61V48.09A40.1,40.1,0,0,0,3,23.9,14.8,14.8,0,1,1,29.6,15,14.63,14.63,0,0,1,27,23.37a44.56,44.56,0,0,0-8.25,25.26V65.52a27.36,27.36,0,0,0,7.54,18.54,14.8,14.8,0,1,1-22.08.39A28.92,28.92,0,0,0,11.48,65.61Z"/>
</g></g></svg>