<?xml version="1.0" encoding="UTF-8"?>
<?xml-stylesheet href="/css/style.css" type="text/css"?>
<svg class = "logo" xmlns="http://www.w3.org/2000/svg" viewBox="0 0 200 185">
<g id="Layer_2" data-name="Layer 2">
<g id="Layer_9" data-name="Layer 9"
transform="translate(40,100) rotate(-135) translate(-60, -50) ">
<path d="M64,65.45V47.93a40.13,40.13,0,0,0-8.47-24.19,14.8,14.8,0,1,1,24-.53,44.47,44.47,0,0,0-8.26,25.25V65.35a27.34,27.34,0,0,0,7.54,18.54,14.8,14.8,0,1,1-22.08.4A28.94,28.94,0,0,0,64,65.45Z"/>
<path d="M43,145a14.81,14.81,0,0,1-12.18-24.43,28.89,28.89,0,0,0,7.29-18.84V84.18A40.13,40.13,0,0,0,29.59,60a14.8,14.8,0,1,1,24-.53,44.47,44.47,0,0,0-8.26,25.25V101.6a27.34,27.34,0,0,0,7.54,18.54A14.8,14.8,0,0,1,43,145"/>
<path d="M11.48,65.61V48.09A40.1,40.1,0,0,0,3,23.9,14.8,14.8,0,1,1,29.6,15,14.63,14.63,0,0,1,27,23.37a44.56,44.56,0,0,0-8.25,25.26V65.52a27.36,27.36,0,0,0,7.54,18.54,14.8,14.8,0,1,1-22.08.39A28.92,28.92,0,0,0,11.48,65.61Z"/>
</g>
</g></svg>