<?xml version="1.0" encoding="UTF-8"?>
<?xml-stylesheet href="/css/style.css" type="text/css"?>
<svg class = "logo" xmlns="http://www.w3.org/2000/svg" viewBox="0 0 65 145">
<g id="Layer_2" data-name="Layer 2">
<g id="Layer_9" data-name="Layer 9">
<path d="M43,145a14.81,14.81,0,0,1-12.18-24.43,28.89,28.89,0,0,0,7.29-18.84V84.18A40.13,40.13,0,0,0,29.59,60a14.8,14.8,0,1,1,24-.53,44.47,44.47,0,0,0-8.26,25.25V101.6a27.34,27.34,0,0,0,7.54,18.54A14.8,14.8,0,0,1,43,145"/>
<path d="M11.48,65.61V48.09A40.1,40.1,0,0,0,3,23.9,14.8,14.8,0,1,1,29.6,15,14.63,14.63,0,0,1,27,23.37a44.56,44.56,0,0,0-8.25,25.26V65.52a27.36,27.36,0,0,0,7.54,18.54,14.8,14.8,0,1,1-22.08.39A28.92,28.92,0,0,0,11.48,65.61Z"/>
<path d="M12.0001053,2.99989467 
L4.00010533,12.7776724 L9.33343867,12.7776724 
C9.78266695,14.7041066 10.5048892,16.2782509 11.5001053,17.5001053 
C12.4953215,18.7219597 13.9953215,19.8886264 16.0001053,21.0001053 
C15.3415908,19.6668553 14.8428108,18.1668553 14.5037654,16.5001053 
C14.16472,14.8333553 14.2190556,13.5925444 14.666772,12.7776724 
L20.0001053,12.7776724 L12.0001053,2.99989467 Z" />
</g></g></svg>