<svg xmlns="http://www.w3.org/2000/svg" viewBox="0 0 253.15 67.99"><defs><style>.cls-1{fill:#143f6a;}</style></defs><g id="Layer_2" data-name="Layer 2"><g id="Layer_17" data-name="Layer 17"><path class="cls-1" d="M48.25,9.47v1.09c-2.94,0-5.88,0-12.35,15.3L24.38,54.53H23.29C7.62,16.83,6.91,15.75,6.91,15.75,4.8,10.63,2.5,10.56.83,10.56V9.47H21.18v1.09c-5.25,0-2.81,7.43-2.81,7.43l9.79,24.38,6.72-16.83s5.82-15-4.74-15V9.47Z" transform="translate(-0.83 -8.9)"/><path class="cls-1" d="M72.25,9.47v1.09c-2.75,0-5.44,1.73-5.44,5.7V46.78c0,4.36,2.76,6.66,5.44,6.66v1.09H52.1V53.44c2.75,0,5.44-2.3,5.44-6.66V16.26c0-4-2.63-5.7-5.44-5.7V9.47Z" transform="translate(-0.83 -8.9)"/><path class="cls-1" d="M108.35,49.86s-3,5.24-13.31,5.24c-12.42,0-17.54-4-17.54-4V38.85h1.09C80,42.75,83.65,54,95,54c6.85,0,9-9.28,1.15-15l-9.85-6.21c-9.09-5.69-12.48-12.09-7.17-19.07,0,0,3.13-4.86,13.24-4.86,11,0,16.45,3.07,16.45,3.07V22.72h-1.09C106.56,19.33,102.65,10,92.41,10c-6.91,0-9.4,8.44-1.08,13.88l9.85,6.53C109.63,36,113.15,42.88,108.35,49.86Z" transform="translate(-0.83 -8.9)"/><path class="cls-1" d="M157.31,9.47V22.34h-1.09c-.51-11.46-14.14-11.78-14.14-11.78h-1.22V46.78c0,4.36,2.75,6.66,5.44,6.66v1.09H126.14V53.44c2.69,0,5.44-2.3,5.44-6.66V10.56h-1.21s-13.57.32-14.08,11.78H115.2V9.47Z" transform="translate(-0.83 -8.9)"/><path class="cls-1" d="M196.41,40.58v14h-36V53.44c2.69,0,3.72-3.33,3.72-7.68V18.31c0-4-.9-7.75-3.72-7.75V9.47h35.2V21.63h-1.09C193,10.56,175.68,10.56,175.68,10.56h-2.31V31.23h2.31s9.73,0,10.37-6.65h1.08V39h-1.08c-.64-6.66-10.37-6.66-10.37-6.66h-2.31V53.44h2.31s17,0,19.64-12.86Z" transform="translate(-0.83 -8.9)"/><path class="cls-1" d="M253.12,9.47v1.09c-9.67-.06-9.54,15.17-9.54,15.17v28.8h-3.39l-28-35.14V38.21s-.06,15.23,8.77,15.23v1.09H201.54V53.44c9.66,0,9.6-15.23,9.6-15.23v-20l-2.5-3.13c-4.1-5.12-5.95-4.42-7.62-4.55V9.47H216.7l25.79,31.81V25.73s.07-15.23-8.77-15.17V9.47Z" transform="translate(-0.83 -8.9)"/><path class="cls-1" d="M151.21,65.44l0,.24h-4.32l0-.24a2.94,2.94,0,0,0-3.2-2.62c-2.06,0-3.62,1.73-3.62,5.31,0,4.17,1.73,5.59,3.65,5.59,1.68,0,2.76-1,3.12-2.86l.05-.24h4.32l0,.24c-.41,4-3.45,6-7.61,6-4.44,0-8-2.88-8-8.5s3.69-8.74,8.18-8.74C148.45,59.65,150.87,62.17,151.21,65.44Z" transform="translate(-0.83 -8.9)"/><path class="cls-1" d="M167.94,76.55h-4.71a16.32,16.32,0,0,1-.76-3.31c-.22-1.83-.94-2.88-2-2.95-.48,0-.89,0-1.37,0h-1v6.29h-4.32V60h6.57a21.12,21.12,0,0,1,2.6.12c2.4.29,4.48,1.46,4.48,4.39,0,2.09-1.12,3.48-3.33,4.13,1.73.62,2.35,1.9,2.59,3.89A8.79,8.79,0,0,0,167.94,76.55Zm-8.28-9.41c.45,0,.84,0,1.15,0,1.1-.1,2.11-.48,2.11-1.87s-.89-1.78-2-1.88c-.31,0-.7,0-1.15,0H158.1v3.79Z" transform="translate(-0.83 -8.9)"/><path class="cls-1" d="M182.84,76.55h-12.7V60H182.6v3.36h-8.13v3.22h7.65v3.36h-7.65v3.26h8.37Z" transform="translate(-0.83 -8.9)"/><path class="cls-1" d="M189.63,72.25l-1.39,4.3h-4.58l6-16.56h5.28l6,16.56h-4.7l-1.4-4.3Zm1.06-3.36h3.07l-1.53-5.08Z" transform="translate(-0.83 -8.9)"/><path class="cls-1" d="M208.88,63.35v13.2h-4.32V63.35h-5.38V60h15.08v3.36Z" transform="translate(-0.83 -8.9)"/><path class="cls-1" d="M215.94,76.55V60h4.32V76.55Z" transform="translate(-0.83 -8.9)"/><path class="cls-1" d="M228.3,76.55l-6-16.56H227l4,13.22L235,60h4.59l-6,16.56Z" transform="translate(-0.83 -8.9)"/><path class="cls-1" d="M254,76.55h-12.7V60h12.46v3.36H245.6v3.22h7.66v3.36H245.6v3.26H254Z" transform="translate(-0.83 -8.9)"/></g></g></svg>